<svg xmlns="http://www.w3.org/2000/svg" xmlns:xlink="http://www.w3.org/1999/xlink" width="500" zoomAndPan="magnify" viewBox="0 0 375 374.999991" height="500" preserveAspectRatio="xMidYMid meet" version="1.0"><defs><g/><clipPath id="d875ff95ab"><path d="M 138 154 L 152 154 L 152 190.285156 L 138 190.285156 Z M 138 154 " clip-rule="nonzero"/></clipPath><clipPath id="2ce0b750f1"><path d="M 134 127.285156 L 221 127.285156 L 221 151 L 134 151 Z M 134 127.285156 " clip-rule="nonzero"/></clipPath><clipPath id="88bdc3e73a"><path d="M 203 127.285156 L 264.34375 127.285156 L 264.34375 190 L 203 190 Z M 203 127.285156 " clip-rule="nonzero"/></clipPath></defs><rect x="-37.5" width="450" fill="#ffffff" y="-37.499999" height="449.999989" fill-opacity="1"/><rect x="-37.5" width="450" fill="#ffffff" y="-37.499999" height="449.999989" fill-opacity="1"/><rect x="-37.5" width="450" fill="#ffffff" y="-37.499999" height="449.999989" fill-opacity="1"/><g clip-path="url(#d875ff95ab)"><path fill="#ff0000" d="M 138.925781 183.585938 C 138.925781 187.003906 141.542969 189.941406 144.949219 190.101562 C 148.589844 190.277344 151.59375 187.371094 151.59375 183.761719 C 151.59375 183.445312 151.59375 182.980469 151.59375 182.417969 L 138.925781 154.054688 L 138.925781 183.585938 " fill-opacity="1" fill-rule="nonzero"/></g><path fill="#ff0000" d="M 159.015625 159.613281 L 157.902344 161.980469 C 157.617188 162.585938 156.964844 162.929688 156.296875 162.808594 L 149.367188 161.558594 C 148.582031 161.414062 148.050781 160.675781 148.160156 159.886719 L 148.875 154.941406 C 149.019531 153.929688 150.117188 153.363281 151.019531 153.832031 L 158.363281 157.671875 C 159.0625 158.039062 159.347656 158.890625 159.015625 159.613281 Z M 200.105469 170.667969 C 166.800781 170.667969 174.089844 170.675781 173.652344 170.652344 C 164.09375 170.175781 161.167969 158.246094 164.695312 158.246094 L 200.675781 158.246094 C 200.289062 156.144531 200.050781 153.992188 199.96875 151.816406 C 176.558594 151.816406 142.398438 151.816406 141.535156 151.816406 L 140.820312 151.816406 L 140.890625 151.976562 C 142.660156 155.945312 151.027344 174.675781 153.675781 180.585938 C 153.929688 181.167969 154.507812 181.539062 155.144531 181.539062 L 213.136719 181.539062 C 209.59375 178.074219 206.691406 174.085938 204.523438 169.738281 C 203.234375 170.320312 201.765625 170.667969 200.105469 170.667969 " fill-opacity="1" fill-rule="nonzero"/><g clip-path="url(#2ce0b750f1)"><path fill="#ff0000" d="M 147.898438 145.949219 C 146.929688 146.203125 146.007812 146.609375 145.15625 147.160156 L 144.109375 147.835938 C 142.910156 148.617188 143.457031 150.488281 144.886719 150.488281 L 199.929688 150.488281 C 199.929688 150.367188 199.921875 150.257812 199.921875 150.144531 C 199.921875 148.625 200 147.109375 200.152344 145.605469 L 150.402344 145.605469 L 149.734375 143.558594 L 200.414062 143.558594 C 200.652344 141.957031 200.980469 140.390625 201.390625 138.835938 L 202.035156 136.40625 L 204.546875 136.40625 C 210.179688 136.40625 215.609375 135.171875 220.535156 132.832031 C 218.4375 129.398438 214.695312 127.257812 210.601562 127.257812 L 163.71875 127.257812 C 159.070312 127.257812 154.867188 130.019531 153.023438 134.296875 L 149.1875 143.191406 C 148.558594 143.304688 147.253906 143.421875 145.617188 142.929688 L 145.617188 140.070312 C 145.617188 138.71875 144.386719 137.625 142.941406 137.730469 C 133.824219 138.382812 132.515625 144.371094 135.496094 144.371094 C 135.453125 144.371094 139.753906 144.371094 142.3125 144.371094 C 144.449219 145.597656 146.429688 145.925781 147.898438 145.949219 " fill-opacity="1" fill-rule="nonzero"/></g><path fill="#ff0000" d="M 180.960938 164.464844 C 180.960938 167.890625 183.734375 170.667969 187.160156 170.667969 C 190.585938 170.667969 193.359375 167.890625 193.359375 164.464844 C 193.359375 161.03125 190.585938 158.246094 187.160156 158.246094 C 183.734375 158.246094 180.960938 161.03125 180.960938 164.464844 " fill-opacity="1" fill-rule="nonzero"/><g clip-path="url(#88bdc3e73a)"><path fill="#fdc86c" d="M 252.007812 145.957031 L 234.21875 170.757812 L 233.382812 171.917969 L 228.457031 166.375 L 227.488281 165.277344 L 224.285156 161.675781 L 220.621094 157.558594 C 220.199219 157.089844 220.589844 156.40625 221.128906 156.40625 C 221.234375 156.40625 221.335938 156.429688 221.449219 156.484375 L 226.007812 158.820312 L 229.5625 160.632812 L 230.753906 161.238281 L 233.160156 162.464844 L 234.21875 161.429688 L 250.960938 145.0625 C 251.109375 144.914062 251.277344 144.855469 251.445312 144.855469 C 251.945312 144.855469 252.375 145.4375 252.007812 145.957031 Z M 262.886719 139.671875 C 251.429688 139.671875 241.097656 134.910156 233.734375 127.257812 C 230.371094 130.753906 226.367188 133.644531 221.925781 135.753906 C 216.65625 138.261719 210.761719 139.671875 204.546875 139.671875 C 204.195312 140.945312 203.941406 142.246094 203.726562 143.558594 C 203.617188 144.234375 203.519531 144.921875 203.441406 145.605469 C 203.28125 147.09375 203.179688 148.601562 203.179688 150.144531 C 203.179688 150.257812 203.1875 150.367188 203.1875 150.488281 C 203.1875 150.933594 203.203125 151.371094 203.226562 151.816406 C 203.316406 154.015625 203.578125 156.160156 204 158.246094 C 204.691406 161.652344 205.792969 164.910156 207.273438 167.953125 C 209.847656 173.226562 213.519531 177.851562 218 181.539062 C 218.046875 181.574219 218.085938 181.613281 218.132812 181.652344 C 219.261719 182.574219 220.445312 183.4375 221.671875 184.230469 C 224.539062 186.105469 227.667969 187.609375 230.984375 188.707031 C 231.890625 189.003906 232.804688 189.289062 233.734375 189.519531 C 239.527344 188.054688 244.816406 185.324219 249.308594 181.652344 C 258.429688 174.207031 264.253906 162.863281 264.253906 150.144531 C 264.253906 146.515625 263.785156 143.035156 262.886719 139.671875 " fill-opacity="1" fill-rule="nonzero"/></g><g fill="#103139" fill-opacity="1"><g transform="translate(50.133857, 220.538995)"><g><path d="M 0.351562 0 L 4.960938 0 L 6.847656 -5.503906 L 17.019531 -5.503906 L 18.910156 0 L 23.515625 0 L 14.71875 -23.773438 L 9.117188 -23.773438 Z M 8 -8.863281 L 11.328125 -18.621094 L 11.902344 -20.445312 L 11.964844 -20.445312 L 12.542969 -18.621094 L 15.871094 -8.863281 Z M 8 -8.863281 "/></g></g></g><g fill="#103139" fill-opacity="1"><g transform="translate(86.095832, 220.538995)"><g><path d="M 12.191406 0.480469 C 19.195312 0.480469 22.203125 -2.878906 22.203125 -9.597656 L 22.203125 -23.773438 L 17.917969 -23.773438 L 17.917969 -9.695312 C 17.917969 -5.34375 15.933594 -3.199219 12.222656 -3.199219 C 8.445312 -3.199219 6.464844 -5.34375 6.464844 -9.695312 L 6.464844 -23.773438 L 2.175781 -23.773438 L 2.175781 -9.597656 C 2.175781 -2.816406 5.214844 0.480469 12.191406 0.480469 Z M 12.191406 0.480469 "/></g></g></g><g fill="#103139" fill-opacity="1"><g transform="translate(122.569678, 220.538995)"><g><path d="M 7.742188 0 L 12.0625 0 L 12.0625 -20.1875 L 19.644531 -20.1875 L 19.644531 -23.773438 L 0.160156 -23.773438 L 0.160156 -20.1875 L 7.742188 -20.1875 Z M 7.742188 0 "/></g></g></g><g fill="#103139" fill-opacity="1"><g transform="translate(154.468651, 220.538995)"><g><path d="M 12.476562 0.480469 C 19.582031 0.480469 23.453125 -3.710938 23.453125 -11.679688 L 23.453125 -12.125 C 23.453125 -20.0625 19.582031 -24.21875 12.476562 -24.21875 C 5.375 -24.21875 1.503906 -20.0625 1.503906 -12.125 L 1.503906 -11.679688 C 1.503906 -3.710938 5.375 0.480469 12.476562 0.480469 Z M 5.855469 -11.550781 L 5.855469 -12.253906 C 5.855469 -17.726562 8.191406 -20.539062 12.476562 -20.539062 C 16.765625 -20.539062 19.132812 -17.726562 19.132812 -12.253906 L 19.132812 -11.550781 C 19.132812 -6.046875 16.765625 -3.199219 12.476562 -3.199219 C 8.191406 -3.199219 5.855469 -6.046875 5.855469 -11.550781 Z M 5.855469 -11.550781 "/></g></g></g><g fill="#103139" fill-opacity="1"><g transform="translate(191.518347, 220.538995)"><g><path d="M 18.683594 0 L 22.972656 0 L 22.972656 -23.773438 L 18.683594 -23.773438 L 18.683594 -13.886719 L 7.101562 -13.886719 L 7.101562 -23.773438 L 2.816406 -23.773438 L 2.816406 0 L 7.101562 0 L 7.101562 -10.300781 L 18.683594 -10.300781 Z M 18.683594 0 "/></g></g></g><g fill="#103139" fill-opacity="1"><g transform="translate(229.399844, 220.538995)"><g><path d="M 0.351562 0 L 4.960938 0 L 6.847656 -5.503906 L 17.019531 -5.503906 L 18.910156 0 L 23.515625 0 L 14.71875 -23.773438 L 9.117188 -23.773438 Z M 8 -8.863281 L 11.328125 -18.621094 L 11.902344 -20.445312 L 11.964844 -20.445312 L 12.542969 -18.621094 L 15.871094 -8.863281 Z M 8 -8.863281 "/></g></g></g><g fill="#103139" fill-opacity="1"><g transform="translate(265.361824, 220.538995)"><g><path d="M 12.253906 0.480469 C 19.292969 0.480469 22.652344 -3.617188 22.875 -8.671875 L 22.875 -8.796875 L 18.621094 -8.796875 L 18.621094 -8.636719 C 18.429688 -5.152344 15.996094 -3.199219 12.285156 -3.199219 C 8.160156 -3.199219 5.855469 -6.046875 5.855469 -11.519531 L 5.855469 -12.253906 C 5.855469 -17.726562 8.160156 -20.539062 12.316406 -20.539062 C 16.347656 -20.539062 18.332031 -18.011719 18.589844 -15.101562 L 18.589844 -15.003906 L 22.8125 -15.003906 L 22.8125 -15.132812 C 22.589844 -20.125 19.195312 -24.21875 12.285156 -24.21875 C 5.3125 -24.21875 1.503906 -20.0625 1.503906 -12.09375 L 1.503906 -11.679688 C 1.503906 -3.679688 5.3125 0.480469 12.253906 0.480469 Z M 12.253906 0.480469 "/></g></g></g><g fill="#103139" fill-opacity="1"><g transform="translate(301.707709, 220.538995)"><g><path d="M 2.816406 0 L 7.101562 0 L 7.101562 -10.398438 L 11.007812 -10.398438 L 17.789062 0 L 22.714844 0 L 14.589844 -12.09375 L 14.589844 -12.253906 L 21.628906 -23.773438 L 16.667969 -23.773438 L 11.007812 -13.886719 L 7.101562 -13.886719 L 7.101562 -23.773438 L 2.816406 -23.773438 Z M 2.816406 0 "/></g></g></g><g fill="#103139" fill-opacity="1"><g transform="translate(54.352827, 245.097406)"><g><path d="M 4.550781 -3.484375 C 5.441406 -3.828125 5.9375 -4.5625 5.9375 -5.585938 C 5.9375 -6.816406 4.96875 -7.707031 3.574219 -7.707031 C 3.175781 -7.707031 2.550781 -7.664062 1.835938 -7.664062 L 0.449219 -7.664062 L 0.449219 -7.289062 C 1.089844 -7.070312 1.277344 -6.851562 1.277344 -6.246094 L 1.277344 -1.835938 C 1.277344 -1.011719 1.210938 -0.59375 0.40625 -0.375 L 0.40625 0 L 3.15625 0 L 3.15625 -0.375 C 2.351562 -0.59375 2.265625 -1.011719 2.265625 -1.835938 L 2.265625 -3.320312 C 2.703125 -3.277344 3.023438 -3.253906 3.210938 -3.253906 C 3.308594 -3.253906 3.410156 -3.253906 3.507812 -3.265625 L 5.035156 -0.824219 C 5.488281 -0.109375 5.839844 0.0976562 6.585938 0.0976562 C 6.816406 0.0976562 7.058594 0.0664062 7.324219 0.0429688 L 7.324219 -0.265625 C 6.554688 -0.265625 6.125 -0.902344 5.398438 -2.101562 Z M 3.035156 -3.78125 C 2.726562 -3.78125 2.472656 -3.816406 2.265625 -3.847656 L 2.265625 -7.070312 C 2.5625 -7.125 2.878906 -7.148438 3.175781 -7.148438 C 4.234375 -7.148438 4.871094 -6.464844 4.871094 -5.441406 C 4.871094 -4.300781 4.167969 -3.78125 3.035156 -3.78125 Z M 3.035156 -3.78125 "/></g></g></g><g fill="#103139" fill-opacity="1"><g transform="translate(64.808721, 245.097406)"><g><path d="M 6.101562 -1.859375 C 5.617188 -0.945312 5.035156 -0.59375 3.96875 -0.59375 C 3.035156 -0.59375 2.582031 -0.617188 2.222656 -0.660156 L 2.222656 -3.695312 L 3.265625 -3.695312 C 4.125 -3.695312 4.421875 -3.605469 4.640625 -2.878906 L 4.992188 -2.878906 L 5.023438 -4.914062 L 4.683594 -4.914062 C 4.429688 -4.320312 4.078125 -4.242188 3.265625 -4.242188 L 2.222656 -4.242188 L 2.222656 -7.070312 C 2.75 -7.082031 3.242188 -7.089844 3.605469 -7.089844 C 4.859375 -7.089844 5.125 -6.992188 5.550781 -5.90625 L 5.914062 -5.960938 L 5.792969 -7.664062 L 0.40625 -7.664062 L 0.40625 -7.257812 C 1.042969 -7.089844 1.230469 -6.859375 1.230469 -6.257812 L 1.230469 -1.386719 C 1.230469 -0.78125 1.042969 -0.539062 0.40625 -0.375 L 0.40625 0 L 5.859375 0 L 6.488281 -1.726562 Z M 6.101562 -1.859375 "/></g></g></g><g fill="#103139" fill-opacity="1"><g transform="translate(74.835919, 245.097406)"><g><path d="M 5.289062 -7.289062 C 6.15625 -7.136719 6.113281 -6.75 5.761719 -5.804688 L 4.078125 -1.339844 L 2.441406 -5.914062 C 2.109375 -6.851562 2.253906 -7.167969 2.9375 -7.289062 L 2.9375 -7.664062 L 0.109375 -7.664062 L 0.109375 -7.289062 C 1.097656 -7.136719 1.265625 -6.203125 1.394531 -5.859375 C 2.96875 -1.683594 3.472656 0 3.472656 0.0898438 L 4.132812 0.0898438 C 4.167969 -0.207031 4.992188 -2.199219 6.542969 -5.914062 C 6.851562 -6.652344 7.003906 -7.136719 7.773438 -7.289062 L 7.773438 -7.664062 L 5.289062 -7.664062 Z M 5.289062 -7.289062 "/></g></g></g><g fill="#103139" fill-opacity="1"><g transform="translate(85.885395, 245.097406)"><g/></g></g><g fill="#103139" fill-opacity="1"><g transform="translate(92.131259, 245.097406)"><g><path d="M 4.253906 0.175781 C 5.609375 0.175781 6.628906 -0.417969 7.027344 -1.351562 C 7.277344 -1.945312 7.300781 -2.640625 7.300781 -3.441406 L 7.300781 -4.519531 C 7.300781 -6.507812 7.378906 -7.082031 8.214844 -7.289062 L 8.214844 -7.664062 L 5.695312 -7.664062 L 5.695312 -7.289062 C 6.609375 -7.082031 6.683594 -6.816406 6.683594 -5.246094 L 6.683594 -3.5625 C 6.683594 -1.726562 6.222656 -0.582031 4.453125 -0.582031 C 2.605469 -0.582031 2.210938 -1.738281 2.210938 -3.738281 L 2.210938 -5.828125 C 2.210938 -6.652344 2.277344 -7.070312 3.078125 -7.289062 L 3.078125 -7.664062 L 0.328125 -7.664062 L 0.328125 -7.289062 C 1.132812 -7.070312 1.21875 -6.652344 1.21875 -5.828125 L 1.21875 -3.738281 C 1.21875 -1.199219 1.8125 0.175781 4.253906 0.175781 Z M 4.253906 0.175781 "/></g></g></g><g fill="#103139" fill-opacity="1"><g transform="translate(103.807287, 245.097406)"><g><path d="M 2.265625 -3.210938 C 2.703125 -3.167969 3.023438 -3.144531 3.210938 -3.144531 C 5.144531 -3.144531 6.15625 -4.125 6.15625 -5.585938 C 6.15625 -6.816406 5.191406 -7.707031 3.574219 -7.707031 C 3.175781 -7.707031 2.550781 -7.664062 1.835938 -7.664062 L 0.449219 -7.664062 L 0.449219 -7.289062 C 1.089844 -7.125 1.277344 -6.925781 1.277344 -6.320312 L 1.277344 -1.835938 C 1.277344 -1.011719 1.210938 -0.59375 0.40625 -0.375 L 0.40625 0 L 3.15625 0 L 3.15625 -0.375 C 2.351562 -0.59375 2.265625 -1.011719 2.265625 -1.835938 Z M 3.035156 -3.683594 C 2.726562 -3.683594 2.472656 -3.714844 2.265625 -3.75 L 2.265625 -7.089844 C 2.5625 -7.148438 2.878906 -7.167969 3.175781 -7.167969 C 4.453125 -7.167969 5.089844 -6.464844 5.089844 -5.441406 C 5.089844 -4.300781 4.386719 -3.683594 3.035156 -3.683594 Z M 3.035156 -3.683594 "/></g></g></g><g fill="#103139" fill-opacity="1"><g transform="translate(113.416776, 245.097406)"><g/></g></g><g fill="#103139" fill-opacity="1"><g transform="translate(119.662641, 245.097406)"><g><path d="M 4.773438 -7.324219 C 5.453125 -7.167969 5.488281 -6.839844 4.847656 -5.738281 C 4.539062 -5.210938 4.1875 -4.617188 3.761719 -3.980469 L 2.441406 -6.277344 C 2.089844 -6.894531 2.230469 -7.15625 2.871094 -7.300781 L 2.871094 -7.664062 L 0.078125 -7.664062 L 0.078125 -7.324219 C 0.792969 -7.15625 1.054688 -6.675781 1.40625 -6.082031 L 3.023438 -3.375 L 3.023438 -1.847656 C 3.023438 -1.023438 2.957031 -0.605469 2.15625 -0.386719 L 2.15625 -0.0117188 L 4.902344 -0.0117188 L 4.902344 -0.386719 C 4.101562 -0.605469 4.011719 -1.023438 4.011719 -1.847656 L 4.011719 -3.410156 L 5.367188 -5.476562 C 6.191406 -6.730469 6.378906 -7.125 7.148438 -7.289062 L 7.148438 -7.664062 L 4.773438 -7.664062 Z M 4.773438 -7.324219 "/></g></g></g><g fill="#103139" fill-opacity="1"><g transform="translate(130.09655, 245.097406)"><g><path d="M 4.398438 0.175781 C 6.554688 0.175781 8.3125 -1.59375 8.3125 -3.859375 C 8.3125 -6.101562 6.730469 -7.839844 4.410156 -7.839844 C 2.265625 -7.839844 0.503906 -6.082031 0.503906 -3.847656 C 0.503906 -1.636719 2.121094 0.175781 4.398438 0.175781 Z M 4.519531 -0.429688 C 2.980469 -0.429688 1.691406 -1.847656 1.691406 -4.078125 C 1.691406 -6.070312 2.78125 -7.234375 4.289062 -7.234375 C 5.871094 -7.234375 7.125 -5.816406 7.125 -3.671875 C 7.125 -1.617188 6.015625 -0.429688 4.519531 -0.429688 Z M 4.519531 -0.429688 "/></g></g></g><g fill="#103139" fill-opacity="1"><g transform="translate(142.102352, 245.097406)"><g><path d="M 4.253906 0.175781 C 5.609375 0.175781 6.628906 -0.417969 7.027344 -1.351562 C 7.277344 -1.945312 7.300781 -2.640625 7.300781 -3.441406 L 7.300781 -4.519531 C 7.300781 -6.507812 7.378906 -7.082031 8.214844 -7.289062 L 8.214844 -7.664062 L 5.695312 -7.664062 L 5.695312 -7.289062 C 6.609375 -7.082031 6.683594 -6.816406 6.683594 -5.246094 L 6.683594 -3.5625 C 6.683594 -1.726562 6.222656 -0.582031 4.453125 -0.582031 C 2.605469 -0.582031 2.210938 -1.738281 2.210938 -3.738281 L 2.210938 -5.828125 C 2.210938 -6.652344 2.277344 -7.070312 3.078125 -7.289062 L 3.078125 -7.664062 L 0.328125 -7.664062 L 0.328125 -7.289062 C 1.132812 -7.070312 1.21875 -6.652344 1.21875 -5.828125 L 1.21875 -3.738281 C 1.21875 -1.199219 1.8125 0.175781 4.253906 0.175781 Z M 4.253906 0.175781 "/></g></g></g><g fill="#103139" fill-opacity="1"><g transform="translate(153.77838, 245.097406)"><g><path d="M 4.550781 -3.484375 C 5.441406 -3.828125 5.9375 -4.5625 5.9375 -5.585938 C 5.9375 -6.816406 4.96875 -7.707031 3.574219 -7.707031 C 3.175781 -7.707031 2.550781 -7.664062 1.835938 -7.664062 L 0.449219 -7.664062 L 0.449219 -7.289062 C 1.089844 -7.070312 1.277344 -6.851562 1.277344 -6.246094 L 1.277344 -1.835938 C 1.277344 -1.011719 1.210938 -0.59375 0.40625 -0.375 L 0.40625 0 L 3.15625 0 L 3.15625 -0.375 C 2.351562 -0.59375 2.265625 -1.011719 2.265625 -1.835938 L 2.265625 -3.320312 C 2.703125 -3.277344 3.023438 -3.253906 3.210938 -3.253906 C 3.308594 -3.253906 3.410156 -3.253906 3.507812 -3.265625 L 5.035156 -0.824219 C 5.488281 -0.109375 5.839844 0.0976562 6.585938 0.0976562 C 6.816406 0.0976562 7.058594 0.0664062 7.324219 0.0429688 L 7.324219 -0.265625 C 6.554688 -0.265625 6.125 -0.902344 5.398438 -2.101562 Z M 3.035156 -3.78125 C 2.726562 -3.78125 2.472656 -3.816406 2.265625 -3.847656 L 2.265625 -7.070312 C 2.5625 -7.125 2.878906 -7.148438 3.175781 -7.148438 C 4.234375 -7.148438 4.871094 -6.464844 4.871094 -5.441406 C 4.871094 -4.300781 4.167969 -3.78125 3.035156 -3.78125 Z M 3.035156 -3.78125 "/></g></g></g><g fill="#103139" fill-opacity="1"><g transform="translate(164.234274, 245.097406)"><g/></g></g><g fill="#103139" fill-opacity="1"><g transform="translate(170.480138, 245.097406)"><g><path d="M 2.265625 -3.210938 C 2.703125 -3.167969 3.023438 -3.144531 3.210938 -3.144531 C 5.144531 -3.144531 6.15625 -4.125 6.15625 -5.585938 C 6.15625 -6.816406 5.191406 -7.707031 3.574219 -7.707031 C 3.175781 -7.707031 2.550781 -7.664062 1.835938 -7.664062 L 0.449219 -7.664062 L 0.449219 -7.289062 C 1.089844 -7.125 1.277344 -6.925781 1.277344 -6.320312 L 1.277344 -1.835938 C 1.277344 -1.011719 1.210938 -0.59375 0.40625 -0.375 L 0.40625 0 L 3.15625 0 L 3.15625 -0.375 C 2.351562 -0.59375 2.265625 -1.011719 2.265625 -1.835938 Z M 3.035156 -3.683594 C 2.726562 -3.683594 2.472656 -3.714844 2.265625 -3.75 L 2.265625 -7.089844 C 2.5625 -7.148438 2.878906 -7.167969 3.175781 -7.167969 C 4.453125 -7.167969 5.089844 -6.464844 5.089844 -5.441406 C 5.089844 -4.300781 4.386719 -3.683594 3.035156 -3.683594 Z M 3.035156 -3.683594 "/></g></g></g><g fill="#103139" fill-opacity="1"><g transform="translate(180.089627, 245.097406)"><g><path d="M 6.101562 -1.859375 C 5.617188 -0.945312 5.035156 -0.59375 3.96875 -0.59375 C 3.035156 -0.59375 2.582031 -0.617188 2.222656 -0.660156 L 2.222656 -3.695312 L 3.265625 -3.695312 C 4.125 -3.695312 4.421875 -3.605469 4.640625 -2.878906 L 4.992188 -2.878906 L 5.023438 -4.914062 L 4.683594 -4.914062 C 4.429688 -4.320312 4.078125 -4.242188 3.265625 -4.242188 L 2.222656 -4.242188 L 2.222656 -7.070312 C 2.75 -7.082031 3.242188 -7.089844 3.605469 -7.089844 C 4.859375 -7.089844 5.125 -6.992188 5.550781 -5.90625 L 5.914062 -5.960938 L 5.792969 -7.664062 L 0.40625 -7.664062 L 0.40625 -7.257812 C 1.042969 -7.089844 1.230469 -6.859375 1.230469 -6.257812 L 1.230469 -1.386719 C 1.230469 -0.78125 1.042969 -0.539062 0.40625 -0.375 L 0.40625 0 L 5.859375 0 L 6.488281 -1.726562 Z M 6.101562 -1.859375 "/></g></g></g><g fill="#103139" fill-opacity="1"><g transform="translate(190.116825, 245.097406)"><g><path d="M 7.640625 0.0898438 C 7.621094 -0.265625 7.609375 -0.800781 7.609375 -1.507812 C 7.609375 -1.957031 7.609375 -2.484375 7.621094 -3.078125 L 7.640625 -4.519531 C 7.675781 -6.554688 7.71875 -7.125 8.554688 -7.289062 L 8.554688 -7.664062 L 6.035156 -7.664062 L 6.035156 -7.289062 C 6.949219 -7.125 7.015625 -6.859375 7.027344 -5.246094 C 7.035156 -4.035156 7.046875 -2.957031 7.070312 -1.636719 L 2.640625 -6.882812 C 2.417969 -7.148438 2.242188 -7.398438 2.132812 -7.664062 L 0.273438 -7.664062 L 0.273438 -7.289062 C 0.867188 -7.203125 1.230469 -6.992188 1.21875 -6.367188 L 1.1875 -3.144531 C 1.164062 -1.144531 1.109375 -0.59375 0.273438 -0.375 L 0.273438 0 L 2.792969 0 L 2.792969 -0.375 C 1.878906 -0.59375 1.824219 -0.824219 1.804688 -2.417969 C 1.78125 -3.914062 1.78125 -4.96875 1.769531 -6.257812 L 6.378906 -0.835938 C 6.730469 -0.429688 6.980469 -0.144531 7.125 0.0898438 Z M 7.640625 0.0898438 "/></g></g></g><g fill="#103139" fill-opacity="1"><g transform="translate(202.133613, 245.097406)"><g><path d="M 0.320312 -7.664062 L 0.109375 -5.949219 L 0.460938 -5.894531 C 0.746094 -6.816406 1.023438 -7.148438 1.933594 -7.148438 L 2.9375 -7.148438 L 2.9375 -1.835938 C 2.9375 -1.011719 2.871094 -0.59375 2.066406 -0.375 L 2.066406 0 L 4.816406 0 L 4.816406 -0.375 C 4.011719 -0.59375 3.925781 -1.011719 3.925781 -1.835938 L 3.925781 -7.148438 L 4.859375 -7.148438 C 5.761719 -7.148438 6.082031 -6.871094 6.332031 -5.925781 L 6.652344 -5.96875 L 6.542969 -7.664062 Z M 0.320312 -7.664062 "/></g></g></g><g fill="#103139" fill-opacity="1"><g transform="translate(212.083861, 245.097406)"><g><path d="M 6.101562 -1.859375 C 5.617188 -0.945312 5.035156 -0.59375 3.96875 -0.59375 C 3.035156 -0.59375 2.582031 -0.617188 2.222656 -0.660156 L 2.222656 -3.695312 L 3.265625 -3.695312 C 4.125 -3.695312 4.421875 -3.605469 4.640625 -2.878906 L 4.992188 -2.878906 L 5.023438 -4.914062 L 4.683594 -4.914062 C 4.429688 -4.320312 4.078125 -4.242188 3.265625 -4.242188 L 2.222656 -4.242188 L 2.222656 -7.070312 C 2.75 -7.082031 3.242188 -7.089844 3.605469 -7.089844 C 4.859375 -7.089844 5.125 -6.992188 5.550781 -5.90625 L 5.914062 -5.960938 L 5.792969 -7.664062 L 0.40625 -7.664062 L 0.40625 -7.257812 C 1.042969 -7.089844 1.230469 -6.859375 1.230469 -6.257812 L 1.230469 -1.386719 C 1.230469 -0.78125 1.042969 -0.539062 0.40625 -0.375 L 0.40625 0 L 5.859375 0 L 6.488281 -1.726562 Z M 6.101562 -1.859375 "/></g></g></g><g fill="#103139" fill-opacity="1"><g transform="translate(222.111059, 245.097406)"><g><path d="M 2.519531 0.144531 C 4.363281 0.144531 5.476562 -0.878906 5.476562 -2.253906 C 5.476562 -3.242188 4.925781 -3.835938 3.792969 -4.234375 C 2.472656 -4.683594 1.515625 -4.894531 1.515625 -5.882812 C 1.515625 -6.585938 2.121094 -7.136719 3.089844 -7.136719 C 4.011719 -7.136719 4.605469 -6.738281 4.871094 -5.804688 L 5.234375 -5.882812 L 5.046875 -7.433594 C 4.476562 -7.585938 3.902344 -7.71875 3.222656 -7.71875 C 1.738281 -7.71875 0.660156 -6.773438 0.660156 -5.5625 C 0.660156 -4.429688 1.351562 -3.847656 2.671875 -3.417969 C 3.835938 -3.035156 4.574219 -2.914062 4.574219 -1.878906 C 4.574219 -1.042969 3.890625 -0.429688 2.824219 -0.429688 C 1.703125 -0.429688 0.921875 -0.980469 0.757812 -2.089844 L 0.375 -2.035156 L 0.539062 -0.199219 C 1.199219 0.03125 1.835938 0.144531 2.519531 0.144531 Z M 2.519531 0.144531 "/></g></g></g><g fill="#103139" fill-opacity="1"><g transform="translate(231.247884, 245.097406)"><g><path d="M 0.320312 -7.664062 L 0.109375 -5.949219 L 0.460938 -5.894531 C 0.746094 -6.816406 1.023438 -7.148438 1.933594 -7.148438 L 2.9375 -7.148438 L 2.9375 -1.835938 C 2.9375 -1.011719 2.871094 -0.59375 2.066406 -0.375 L 2.066406 0 L 4.816406 0 L 4.816406 -0.375 C 4.011719 -0.59375 3.925781 -1.011719 3.925781 -1.835938 L 3.925781 -7.148438 L 4.859375 -7.148438 C 5.761719 -7.148438 6.082031 -6.871094 6.332031 -5.925781 L 6.652344 -5.96875 L 6.542969 -7.664062 Z M 0.320312 -7.664062 "/></g></g></g><g fill="#103139" fill-opacity="1"><g transform="translate(241.198132, 245.097406)"><g><path d="M 1.296875 -1.835938 C 1.296875 -1.011719 1.230469 -0.59375 0.429688 -0.375 L 0.429688 0 L 3.175781 0 L 3.175781 -0.375 C 2.375 -0.59375 2.285156 -1.011719 2.285156 -1.835938 L 2.285156 -5.828125 C 2.285156 -6.652344 2.351562 -7.070312 3.15625 -7.289062 L 3.15625 -7.664062 L 0.40625 -7.664062 L 0.40625 -7.289062 C 1.210938 -7.070312 1.296875 -6.652344 1.296875 -5.828125 Z M 1.296875 -1.835938 "/></g></g></g><g fill="#103139" fill-opacity="1"><g transform="translate(247.993622, 245.097406)"><g><path d="M 7.640625 0.0898438 C 7.621094 -0.265625 7.609375 -0.800781 7.609375 -1.507812 C 7.609375 -1.957031 7.609375 -2.484375 7.621094 -3.078125 L 7.640625 -4.519531 C 7.675781 -6.554688 7.71875 -7.125 8.554688 -7.289062 L 8.554688 -7.664062 L 6.035156 -7.664062 L 6.035156 -7.289062 C 6.949219 -7.125 7.015625 -6.859375 7.027344 -5.246094 C 7.035156 -4.035156 7.046875 -2.957031 7.070312 -1.636719 L 2.640625 -6.882812 C 2.417969 -7.148438 2.242188 -7.398438 2.132812 -7.664062 L 0.273438 -7.664062 L 0.273438 -7.289062 C 0.867188 -7.203125 1.230469 -6.992188 1.21875 -6.367188 L 1.1875 -3.144531 C 1.164062 -1.144531 1.109375 -0.59375 0.273438 -0.375 L 0.273438 0 L 2.792969 0 L 2.792969 -0.375 C 1.878906 -0.59375 1.824219 -0.824219 1.804688 -2.417969 C 1.78125 -3.914062 1.78125 -4.96875 1.769531 -6.257812 L 6.378906 -0.835938 C 6.730469 -0.429688 6.980469 -0.144531 7.125 0.0898438 Z M 7.640625 0.0898438 "/></g></g></g><g fill="#103139" fill-opacity="1"><g transform="translate(260.010421, 245.097406)"><g><path d="M 4.574219 0.175781 C 5.574219 0.175781 6.355469 -0.0664062 7.246094 -0.253906 C 7.210938 -0.59375 7.203125 -1.277344 7.203125 -1.878906 C 7.203125 -2.902344 7.203125 -3.144531 7.925781 -3.363281 L 7.925781 -3.726562 L 4.53125 -3.726562 L 4.53125 -3.363281 C 6.167969 -3.210938 6.257812 -2.878906 6.257812 -2.078125 L 6.257812 -0.683594 C 5.816406 -0.515625 5.410156 -0.429688 4.738281 -0.429688 C 3.144531 -0.429688 1.671875 -1.835938 1.671875 -4.035156 C 1.671875 -6.070312 2.726562 -7.222656 4.398438 -7.222656 C 5.519531 -7.222656 6.378906 -6.707031 6.871094 -5.542969 L 7.269531 -5.609375 L 7.070312 -7.410156 C 6.3125 -7.683594 5.453125 -7.828125 4.738281 -7.828125 C 2.242188 -7.828125 0.503906 -6.210938 0.503906 -3.828125 C 0.503906 -1.429688 2.121094 0.175781 4.574219 0.175781 Z M 4.574219 0.175781 "/></g></g></g><g fill="#103139" fill-opacity="1"><g transform="translate(271.411643, 245.097406)"><g/></g></g><g fill="#103139" fill-opacity="1"><g transform="translate(277.657507, 245.097406)"><g><path d="M 4.574219 0.175781 C 5.574219 0.175781 6.355469 -0.0664062 7.246094 -0.253906 C 7.210938 -0.59375 7.203125 -1.277344 7.203125 -1.878906 C 7.203125 -2.902344 7.203125 -3.144531 7.925781 -3.363281 L 7.925781 -3.726562 L 4.53125 -3.726562 L 4.53125 -3.363281 C 6.167969 -3.210938 6.257812 -2.878906 6.257812 -2.078125 L 6.257812 -0.683594 C 5.816406 -0.515625 5.410156 -0.429688 4.738281 -0.429688 C 3.144531 -0.429688 1.671875 -1.835938 1.671875 -4.035156 C 1.671875 -6.070312 2.726562 -7.222656 4.398438 -7.222656 C 5.519531 -7.222656 6.378906 -6.707031 6.871094 -5.542969 L 7.269531 -5.609375 L 7.070312 -7.410156 C 6.3125 -7.683594 5.453125 -7.828125 4.738281 -7.828125 C 2.242188 -7.828125 0.503906 -6.210938 0.503906 -3.828125 C 0.503906 -1.429688 2.121094 0.175781 4.574219 0.175781 Z M 4.574219 0.175781 "/></g></g></g><g fill="#103139" fill-opacity="1"><g transform="translate(289.058729, 245.097406)"><g><path d="M 4.628906 -7.664062 L 3.707031 -7.664062 L 1.199219 -1.320312 C 0.933594 -0.660156 0.5625 -0.472656 0.0546875 -0.375 L 0.0546875 0 L 2.628906 0 L 2.628906 -0.375 C 1.914062 -0.539062 1.78125 -0.867188 2.023438 -1.527344 L 2.648438 -3.222656 L 5.125 -3.210938 L 5.683594 -1.550781 C 5.9375 -0.800781 5.628906 -0.539062 5.113281 -0.375 L 5.113281 0 L 7.882812 0 L 7.882812 -0.375 C 7.300781 -0.5625 7.058594 -0.757812 6.792969 -1.507812 Z M 3.945312 -6.695312 L 4.9375 -3.78125 L 2.859375 -3.78125 Z M 3.945312 -6.695312 "/></g></g></g><g fill="#103139" fill-opacity="1"><g transform="translate(300.295064, 245.097406)"><g><path d="M 8.984375 -6.277344 C 8.949219 -6.9375 9.214844 -7.167969 9.808594 -7.289062 L 9.808594 -7.664062 L 7.863281 -7.664062 C 7.863281 -7.269531 7.554688 -6.5625 7.433594 -6.289062 L 5.265625 -1.617188 L 3 -6.453125 C 2.714844 -7.058594 2.671875 -7.421875 2.671875 -7.664062 L 0.769531 -7.664062 L 0.769531 -7.289062 C 1.308594 -7.148438 1.539062 -6.9375 1.515625 -6.421875 L 1.417969 -4.476562 L 1.1875 -1.472656 C 1.132812 -0.746094 1.042969 -0.550781 0.21875 -0.375 L 0.21875 0 L 2.726562 -0.0117188 L 2.726562 -0.375 C 1.847656 -0.550781 1.8125 -0.835938 1.847656 -1.472656 L 2.078125 -6.113281 L 4.355469 -1.1875 C 4.53125 -0.8125 4.671875 -0.472656 4.75 -0.121094 L 5.289062 -0.121094 C 5.464844 -0.800781 5.664062 -1.164062 5.726562 -1.308594 L 8.039062 -6.378906 L 8.246094 -1.75 C 8.289062 -0.792969 8.148438 -0.605469 7.3125 -0.386719 L 7.3125 0 L 10.105469 0 L 10.105469 -0.375 C 9.3125 -0.59375 9.289062 -0.683594 9.234375 -1.726562 Z M 8.984375 -6.277344 "/></g></g></g><g fill="#103139" fill-opacity="1"><g transform="translate(313.806805, 245.097406)"><g><path d="M 6.101562 -1.859375 C 5.617188 -0.945312 5.035156 -0.59375 3.96875 -0.59375 C 3.035156 -0.59375 2.582031 -0.617188 2.222656 -0.660156 L 2.222656 -3.695312 L 3.265625 -3.695312 C 4.125 -3.695312 4.421875 -3.605469 4.640625 -2.878906 L 4.992188 -2.878906 L 5.023438 -4.914062 L 4.683594 -4.914062 C 4.429688 -4.320312 4.078125 -4.242188 3.265625 -4.242188 L 2.222656 -4.242188 L 2.222656 -7.070312 C 2.75 -7.082031 3.242188 -7.089844 3.605469 -7.089844 C 4.859375 -7.089844 5.125 -6.992188 5.550781 -5.90625 L 5.914062 -5.960938 L 5.792969 -7.664062 L 0.40625 -7.664062 L 0.40625 -7.257812 C 1.042969 -7.089844 1.230469 -6.859375 1.230469 -6.257812 L 1.230469 -1.386719 C 1.230469 -0.78125 1.042969 -0.539062 0.40625 -0.375 L 0.40625 0 L 5.859375 0 L 6.488281 -1.726562 Z M 6.101562 -1.859375 "/></g></g></g></svg>